<svg width="16" height="22" viewBox="0 0 16 22" fill="none" xmlns="http://www.w3.org/2000/svg">
<path fill-rule="evenodd" clip-rule="evenodd" d="M1.75 8C1.75 5.92152 2.46457 4.37852 3.56253 3.35172C4.66848 2.31745 6.22502 1.75 8 1.75C9.7732 1.75 11.33 2.32209 12.4368 3.35967C13.536 4.39007 14.25 5.93382 14.25 8C14.25 11.0195 12.616 14.1085 10.891 16.5083C10.0383 17.6946 9.18421 18.684 8.54329 19.3766C8.33737 19.5991 8.15387 19.7906 8 19.9476C7.84613 19.7906 7.66263 19.5991 7.45671 19.3766C6.81579 18.684 5.96171 17.6946 5.109 16.5083C3.38403 14.1085 1.75 11.0195 1.75 8ZM7.49028 21.5502C7.49047 21.5503 7.49063 21.5505 8 21L7.49063 21.5505C7.77811 21.8165 8.22189 21.8165 8.50937 21.5505L8 21C8.50937 21.5505 8.50953 21.5503 8.50972 21.5502L8.51023 21.5497L8.51173 21.5483L8.51663 21.5437L8.53386 21.5276C8.5486 21.5137 8.56979 21.4937 8.59699 21.4677C8.65138 21.4157 8.72984 21.3397 8.82894 21.2414C9.02709 21.0449 9.30804 20.7587 9.64421 20.3954C10.3158 19.6697 11.2117 18.6321 12.109 17.3838C13.884 14.9143 15.75 11.5034 15.75 8C15.75 5.56618 14.897 3.60993 13.4627 2.26533C12.036 0.927914 10.0928 0.25 8 0.25C5.90899 0.25 3.96553 0.921123 2.53797 2.25615C1.10244 3.59863 0.25 5.55563 0.25 8C0.25 11.5034 2.11597 14.9143 3.891 17.3838C4.78829 18.6321 5.68421 19.6697 6.35579 20.3954C6.69196 20.7587 6.97291 21.0449 7.17106 21.2414C7.27016 21.3397 7.34862 21.4157 7.40301 21.4677C7.43021 21.4937 7.4514 21.5137 7.46614 21.5276L7.48337 21.5437L7.48827 21.5483L7.48977 21.5497L7.49028 21.5502ZM5.75 8C5.75 6.75736 6.75736 5.75 8 5.75C9.24264 5.75 10.25 6.75736 10.25 8C10.25 9.24264 9.24264 10.25 8 10.25C6.75736 10.25 5.75 9.24264 5.75 8ZM8 4.25C5.92893 4.25 4.25 5.92893 4.25 8C4.25 10.0711 5.92893 11.75 8 11.75C10.0711 11.75 11.75 10.0711 11.75 8C11.75 5.92893 10.0711 4.25 8 4.25Z" fill="#977656"/>
</svg>
